<?xml version="1.0" standalone="no"?>
<!DOCTYPE svg PUBLIC "-//W3C//DTD SVG 20010904//EN"
 "http://www.w3.org/TR/2001/REC-SVG-20010904/DTD/svg10.dtd">
<svg version="1.0" xmlns="http://www.w3.org/2000/svg"
 width="261.000000pt" height="261.000000pt" viewBox="0 0 261.000000 261.000000"
 preserveAspectRatio="xMidYMid meet">
<metadata>
Created by potrace 1.11, written by Peter Selinger 2001-2013
</metadata>
<g transform="translate(0.000000,261.000000) scale(0.100000,-0.100000)"
fill="#000000" stroke="none">
<path d="M1074 2573 c5 -30 13 -97 21 -178 5 -50 15 -148 20 -195 2 -14 6 -56
9 -95 4 -38 9 -83 11 -100 2 -16 6 -57 10 -90 3 -33 8 -80 11 -105 3 -25 7
-61 9 -80 4 -47 15 -148 19 -185 2 -16 7 -59 11 -95 3 -36 8 -76 10 -90 2 -14
7 -63 10 -110 4 -47 8 -87 10 -90 2 -3 6 -41 10 -85 4 -44 8 -91 10 -105 1
-14 5 -56 9 -95 4 -38 9 -81 11 -95 2 -14 7 -54 10 -90 3 -36 8 -74 10 -85 2
-11 4 -24 4 -28 1 -5 5 -6 10 -3 4 3 12 43 15 88 4 46 9 97 11 113 2 17 7 57
10 90 3 33 8 74 10 90 2 17 7 62 10 100 4 39 8 84 10 100 3 17 9 77 15 135 6
58 13 121 15 140 2 19 9 85 15 145 6 61 13 121 15 135 4 30 12 110 20 205 3
39 8 81 10 95 4 22 8 55 20 170 1 19 6 60 9 90 8 68 14 129 21 200 3 30 8 72
11 93 l5 37 -226 0 -225 0 4 -27z"/>
<path d="M353 2319 c117 -161 147 -264 125 -429 -17 -124 -40 -188 -155 -440
-143 -311 -173 -423 -168 -625 2 -93 9 -149 23 -196 74 -249 242 -424 504
-528 63 -25 150 -49 273 -76 120 -26 570 -26 665 0 8 2 29 7 45 9 113 20 286
80 385 134 146 80 266 198 328 322 59 118 75 192 69 305 -7 121 -19 168 -65
260 -95 191 -303 327 -565 369 -43 7 -80 9 -82 5 -3 -4 15 -19 40 -34 62 -36
163 -139 204 -208 35 -60 74 -159 86 -217 13 -69 14 -245 0 -300 -33 -140 -96
-252 -198 -355 -146 -146 -317 -215 -542 -218 -196 -3 -312 18 -441 78 -243
112 -368 322 -359 605 4 161 28 245 148 532 118 281 143 396 123 553 -17 126
-75 237 -176 335 -62 61 -180 127 -245 137 l-40 6 18 -24z"/>
</g>
</svg>
