<?xml version="1.0" encoding="utf-8"?>
<!-- Generator: Adobe Illustrator 22.1.0, SVG Export Plug-In . SVG Version: 6.00 Build 0)  -->
<svg version="1.1" id="Layer_1" xmlns="http://www.w3.org/2000/svg" xmlns:xlink="http://www.w3.org/1999/xlink" x="0px" y="0px"
	 viewBox="0 0 505 58.9" style="enable-background:new 0 0 505 58.9;" xml:space="preserve">
<style type="text/css">
	.st0{fill:none;stroke:#000000;stroke-width:2;}
	.st1{fill:url(#XMLID_3_);}
	.st2{fill:#0661AA;}
</style>
<line class="st0" x1="350.4" y1="5.2" x2="350.4" y2="57.7"/>
<g id="XMLID_53_">
	<linearGradient id="XMLID_3_" gradientUnits="userSpaceOnUse" x1="1.0499" y1="33.8569" x2="47.8313" y2="33.8569">
		<stop  offset="0.3" style="stop-color:#E64C25"/>
		<stop  offset="0.7" style="stop-color:#EC9B22"/>
	</linearGradient>
	<path id="XMLID_72_" class="st1" d="M33.4,28.5l-0.1,0.3c2.2,1,7.1,4.8,7.1,12.5c0,7.2-6.1,14.5-15.7,14.5c-11.9,0-16-7-16-13.4
		c0-8.2,5.7-13.7,5.7-21.2c0-5.2-3.9-10.3-9.2-11.3l-0.2,0.3c2.2,2.3,2.9,4.6,2.9,7C7.9,25.4,1,31.2,1,40.5C1,49,7,57.7,24.3,57.7
		c15.4,0,23.5-7.5,23.5-15.6C47.8,35.2,42.9,29.4,33.4,28.5z"/>
	<path id="XMLID_2_" class="st2" d="M101,56.3L80.6,29.9v23.8l4.2,1v1.1h-9.5v-1.1l3.4-1V27.8c-0.3-0.3-1.6-1.4-2.9-1.7
		c-0.4-0.1-1-0.2-1-0.2v-1.1h8.1l17.5,22.7V27l-4.2-1v-1.1h9.5v1.1l-3.4,1c0,0,0,20.9,0,23.6c0,2.2,0.2,5.4,0.2,5.8H101z
		 M143.9,39.5c0,11-7.6,17.3-16,17.3c-8.5,0-16-6.4-16-16.4c0-10.1,7.6-16.5,16-16.5C138.1,23.9,143.9,31.9,143.9,39.5z M138.5,41.2
		c0-8-4.8-15.8-11.3-15.8c-7,0-10.1,6.7-10.1,13.9c0,7.1,4,16.1,11.4,16.1C135.5,55.3,138.5,48.2,138.5,41.2z M150.5,27l-3.3-1v-1.1
		h12.6v1.1l-3.9,1l8.7,23.6h0l8.7-23.6l-3.9-1v-1.1h9.3v1.1l-3.2,1l-11,29.4h-2.8L150.5,27z M224.7,40h-2V26.5
		c6.6,0,10.5,1.5,10.5,6.9C233.2,37.3,229.7,40,224.7,40z M280.9,54.7l4.3-1V27l-4.3-1v-1.1h13.6v1.1l-4.3,1v26.8l4.3,1v1.1h-13.6
		V54.7z M302.9,47.3h0.9l2.9,6.7c0.9,0.4,3,1.4,5.5,1.4c3.8,0,7.2-2.2,7.2-6.1c0-3-1.9-4.7-5-6.4c-1-0.5-2-1.1-3.1-1.6
		c-3.7-1.9-7.4-4.6-7.4-9c0-4.7,3.3-8.4,10.3-8.4c3.6,0,6.7,1,7.3,1.2l0.7,7.2h-0.9l-2.7-5.8c-0.5-0.3-2.1-1.2-4.5-1.2
		c-3.5,0-6,2.2-6,5.2c0,2.7,1.8,4.5,5,6.1c1.2,0.6,2.4,1.3,3.7,1.9c5,2.6,7.3,5,7.3,9.4c0,5.5-5.1,8.9-11.5,8.9
		c-4.9,0-7.9-1-8.8-1.3L302.9,47.3z M176.5,54.7l3.5-1l10.8-28.9l3.6-0.9l11.2,29.8l3.5,1v1.1h-13.3v-1.1l4.5-1l-3.2-8.6h-11.9
		l-3.2,8.6l4.5,1v1.1h-10.1V54.7z M186.1,42.9h10.3L191.3,29h0L186.1,42.9z M230.9,40.7c1.1-0.3,7.2-1.8,7.2-7.7
		c0-4.7-3.6-8.3-12.4-8.3c-5.4,0-11,0.1-11.6,0.1v1.1l3.6,1v26.8l-3.6,1v1.1h12.7v-1.1l-4.2-1V41.6h3.6l9.2,14.2h8.1v-1.1l-4.1-1
		L230.9,40.7z M257.8,26.5v27.3l-4.3,1v1.1h13.6v-1.1l-4.3-1V26.5h7.4l2.4,5.2h0.9l-0.7-6.8h-25l-0.7,6.8h0.9l2.4-5.2H257.8z
		 M24.5,46.2l4.3-41.3h-9.1l4.3,41.3H24.5z"/>
</g>
<g>
	<path d="M384.1,20.8v13.9h-2.2V20.8h-5.2v-1.9h12.6v1.9H384.1z"/>
	<path d="M393.3,34.7h-2V18.9h2V23c0,0.6,0,1.4-0.1,1.9h0.1c0.9-1.2,2-1.9,3.7-1.9c2.4,0,3.9,1.3,3.9,3.7v8h-2V27
		c0-1.5-1-2.3-2.5-2.3c-1.8,0-3,1.3-3,3.1V34.7z"/>
	<path d="M408.5,35c-3.5,0-5.6-2.7-5.6-6c0-3.3,2.2-6,5.5-6c1.7,0,3,0.7,3.9,1.8c0.9,1.1,1.4,2.8,1.4,4.7h-8.8
		c0.1,2.2,1.4,3.9,3.6,3.9c1.6,0,2.7-0.7,3-2h1.9C413,33.6,411.1,35,408.5,35z M405,28h6.6c-0.1-2.2-1.2-3.5-3.2-3.5
		C406.3,24.5,405.2,26,405,28z"/>
	<path d="M421.8,18.9h2.3l6.5,9.9c0.8,1.2,1.8,3.2,1.8,3.2h0.1c0,0-0.1-2.1-0.1-3.4v-9.7h2v15.8H432l-6.5-9.9
		c-0.8-1.2-1.8-3.1-1.8-3.1h0c0,0,0.1,2.1,0.1,3.3v9.7h-2V18.9z"/>
	<path d="M436.7,29c0-3.3,2.2-6,5.6-6s5.6,2.7,5.6,6c0,3.3-2.1,6-5.6,6S436.7,32.3,436.7,29z M445.8,29c0-2.5-1.2-4.4-3.6-4.4
		c-2.3,0-3.6,2-3.6,4.4s1.2,4.4,3.6,4.4C444.6,33.4,445.8,31.5,445.8,29z"/>
	<path d="M448.5,23.3h2.1l2,6.2c0.5,1.5,1,3.6,1,3.6h0c0,0,0.5-2.1,1-3.6l2-6.2h2l-4.1,11.4h-2.2L448.5,23.3z"/>
	<path d="M459.4,31.7c0-2.7,2-3.2,4.9-3.6c1.7-0.2,2.8-0.5,2.8-1.6c0-1.2-0.9-2-2.4-2c-1.8,0-2.7,0.9-2.7,2.2H460
		c0.1-1.9,1.6-3.7,4.6-3.7c1.1,0,2,0.2,2.8,0.6c1,0.6,1.5,1.6,1.5,3.1v5.3c0,0.9,0.2,1.4,1.2,1.2h0.1v1.4c-0.3,0.1-0.6,0.2-1.1,0.2
		c-1.2,0-1.8-0.6-2-1.8h0c-0.7,1-1.9,1.9-3.8,1.9C461.1,34.9,459.4,33.9,459.4,31.7z M467.1,30.5v-1.9c-0.6,0.4-1.6,0.6-2.5,0.8
		c-1.9,0.3-3.1,0.7-3.1,2.2c0,1.5,1.1,1.8,2.3,1.8C466.1,33.5,467.1,31.8,467.1,30.5z"/>
	<path d="M471.9,34.7V23.3h2v2.1h0.1c0.7-1.3,1.9-2.2,3.4-2.2c0.3,0,0.5,0,0.7,0.1v1.9h-0.1c-0.3-0.1-0.5-0.1-0.8-0.1
		c-1.8,0-3.3,1.3-3.3,3.5v6.2H471.9z"/>
	<path d="M483.6,34.8c-1.5,0-2.6-0.6-2.6-2.3v-7.7h-1.8v-1.5h1.8v-3.6h2v3.6h2.4v1.5H483V32c0,0.8,0.4,1.1,1.2,1.1
		c0.3,0,0.8-0.1,1-0.1h0.1v1.7C484.7,34.7,484.1,34.8,483.6,34.8z"/>
	<path d="M489.6,20.1c0,0.7-0.5,1.2-1.2,1.2c-0.7,0-1.2-0.5-1.2-1.2s0.5-1.2,1.2-1.2C489.1,18.8,489.6,19.4,489.6,20.1z M487.4,23.3
		h2v11.4h-2V23.3z"/>
	<path d="M491.4,31.2h2c0.2,1.7,1.5,2.2,3.2,2.2c1.8,0,2.6-0.8,2.6-1.8c0-1.3-1-1.6-3-2c-2.2-0.5-4.3-0.9-4.3-3.5
		c0-2,1.5-3.2,4.2-3.2c2.9,0,4.3,1.3,4.6,3.3h-2c-0.2-1.2-1-1.8-2.6-1.8c-1.6,0-2.2,0.7-2.2,1.6c0,1.2,1.1,1.4,3,1.8
		c2.3,0.4,4.2,1,4.2,3.6c0,2.3-1.9,3.5-4.6,3.5C493.4,35.1,491.6,33.6,491.4,31.2z"/>
	<path d="M381.3,48.5v7.3h-2.2V40H390v1.9h-8.7v4.8h7.2v1.9H381.3z"/>
	<path d="M390.5,50.1c0-3.3,2.2-6,5.6-6s5.6,2.7,5.6,6c0,3.3-2.1,6-5.6,6S390.5,53.5,390.5,50.1z M399.7,50.1c0-2.5-1.2-4.4-3.6-4.4
		c-2.3,0-3.6,2-3.6,4.4c0,2.5,1.2,4.4,3.6,4.4C398.4,54.5,399.7,52.6,399.7,50.1z"/>
	<path d="M403.7,52.3v-7.9h2v7.8c0,1.4,0.9,2.3,2.5,2.3c1.7,0,2.9-1.3,2.9-3.1v-7h2v11.4h-2v-1.6h0c-0.8,1.1-1.8,1.9-3.5,1.9
		C405.2,56.1,403.7,54.7,403.7,52.3z"/>
	<path d="M417.8,55.8h-2V44.4h2V46h0.1c0.8-1.1,2-1.9,3.6-1.9c2.4,0,3.9,1.3,3.9,3.7v8h-2v-7.8c0-1.5-1-2.3-2.5-2.3
		c-1.8,0-3,1.3-3,3.1V55.8z"/>
	<path d="M427.3,50.1c0-3.8,2.2-6,5-6c1.6,0,2.9,0.8,3.6,2h0c0-0.5-0.1-1.4-0.1-2.1v-4h2v15.8h-2v-1.6h0c-0.7,1.2-1.9,2-3.5,2
		C429.3,56.2,427.3,53.8,427.3,50.1z M436.1,50.2c0-2.6-1.2-4.4-3.5-4.4c-2.1,0-3.2,1.9-3.2,4.4s1.1,4.4,3.2,4.4
		C435,54.5,436.1,52.7,436.1,50.2z"/>
	<path d="M440.2,52.8c0-2.7,2-3.2,4.9-3.6c1.7-0.2,2.8-0.5,2.8-1.6c0-1.2-0.9-2-2.4-2c-1.8,0-2.7,0.9-2.7,2.2h-1.9
		c0.1-1.9,1.6-3.7,4.6-3.7c1.1,0,2,0.2,2.8,0.6c1,0.6,1.5,1.6,1.5,3.1v5.3c0,0.9,0.2,1.4,1.2,1.2h0.1v1.4c-0.3,0.1-0.6,0.2-1.1,0.2
		c-1.2,0-1.8-0.6-2-1.8h0c-0.7,1-1.9,1.9-3.8,1.9C441.9,56.1,440.2,55,440.2,52.8z M447.9,51.6v-1.9c-0.6,0.4-1.6,0.6-2.5,0.8
		c-1.9,0.3-3.1,0.7-3.1,2.2c0,1.5,1.1,1.8,2.3,1.8C446.8,54.6,447.9,52.9,447.9,51.6z"/>
	<path d="M456.1,55.9c-1.5,0-2.6-0.6-2.6-2.3v-7.7h-1.8v-1.5h1.8v-3.6h2v3.6h2.4v1.5h-2.4v7.2c0,0.8,0.4,1.1,1.2,1.1
		c0.3,0,0.8-0.1,1-0.1h0.1v1.7C457.2,55.9,456.6,55.9,456.1,55.9z"/>
	<path d="M462.1,41.2c0,0.7-0.5,1.2-1.2,1.2c-0.7,0-1.2-0.5-1.2-1.2s0.5-1.2,1.2-1.2C461.6,40,462.1,40.5,462.1,41.2z M459.9,44.4h2
		v11.4h-2V44.4z"/>
	<path d="M464,50.1c0-3.3,2.2-6,5.6-6s5.6,2.7,5.6,6c0,3.3-2.1,6-5.6,6S464,53.5,464,50.1z M473.1,50.1c0-2.5-1.2-4.4-3.6-4.4
		c-2.3,0-3.6,2-3.6,4.4c0,2.5,1.2,4.4,3.6,4.4C471.9,54.5,473.1,52.6,473.1,50.1z"/>
	<path d="M479.2,55.8h-2V44.4h2V46h0.1c0.8-1.1,2-1.9,3.6-1.9c2.4,0,3.9,1.3,3.9,3.7v8h-2v-7.8c0-1.5-1-2.3-2.5-2.3
		c-1.8,0-3,1.3-3,3.1V55.8z"/>
</g>
</svg>
